<mxfile host="app.diagrams.net" modified="2024-01-30T02:24:51.488Z" agent="Mozilla/5.0 (Windows NT 10.0; Win64; x64) AppleWebKit/537.36 (KHTML, like Gecko) Chrome/120.0.0.0 Safari/537.36" etag="FHIyZDD8e3ZjE8OsesMt" version="22.1.21" type="github">
  <diagram name="Halaman-1" id="M7D9cZfGXL2jkpp-uwU2">
    <mxGraphModel dx="1120" dy="460" grid="1" gridSize="10" guides="1" tooltips="1" connect="1" arrows="1" fold="1" page="1" pageScale="1" pageWidth="827" pageHeight="1169" math="0" shadow="0">
      <root>
        <mxCell id="0" />
        <mxCell id="1" parent="0" />
        <mxCell id="17i3ZF8n9uIlwtxzLQqw-1" value="User" style="ellipse;whiteSpace=wrap;html=1;" vertex="1" parent="1">
          <mxGeometry x="40" y="30" width="120" height="60" as="geometry" />
        </mxCell>
        <mxCell id="17i3ZF8n9uIlwtxzLQqw-2" value="" style="endArrow=classic;html=1;rounded=0;" edge="1" parent="1">
          <mxGeometry width="50" height="50" relative="1" as="geometry">
            <mxPoint x="170" y="59.5" as="sourcePoint" />
            <mxPoint x="200" y="60" as="targetPoint" />
            <Array as="points">
              <mxPoint x="200" y="59.5" />
            </Array>
          </mxGeometry>
        </mxCell>
        <mxCell id="17i3ZF8n9uIlwtxzLQqw-3" value="Datang Ke Perpus" style="rounded=1;whiteSpace=wrap;html=1;" vertex="1" parent="1">
          <mxGeometry x="210" y="40" width="120" height="40" as="geometry" />
        </mxCell>
        <mxCell id="17i3ZF8n9uIlwtxzLQqw-4" value="" style="endArrow=classic;html=1;rounded=0;" edge="1" parent="1">
          <mxGeometry width="50" height="50" relative="1" as="geometry">
            <mxPoint x="340" y="59.5" as="sourcePoint" />
            <mxPoint x="370" y="60" as="targetPoint" />
            <Array as="points">
              <mxPoint x="360" y="60" />
              <mxPoint x="370" y="59.5" />
            </Array>
          </mxGeometry>
        </mxCell>
        <mxCell id="17i3ZF8n9uIlwtxzLQqw-5" value="Isi From Kunjungan" style="rounded=1;whiteSpace=wrap;html=1;" vertex="1" parent="1">
          <mxGeometry x="380" y="40" width="120" height="40" as="geometry" />
        </mxCell>
        <mxCell id="17i3ZF8n9uIlwtxzLQqw-6" value="Kirim" style="rounded=1;whiteSpace=wrap;html=1;" vertex="1" parent="1">
          <mxGeometry x="550" y="40" width="120" height="40" as="geometry" />
        </mxCell>
        <mxCell id="17i3ZF8n9uIlwtxzLQqw-7" value="" style="endArrow=classic;html=1;rounded=0;" edge="1" parent="1">
          <mxGeometry width="50" height="50" relative="1" as="geometry">
            <mxPoint x="510" y="59.5" as="sourcePoint" />
            <mxPoint x="540" y="60" as="targetPoint" />
            <Array as="points">
              <mxPoint x="530" y="60" />
              <mxPoint x="540" y="59.5" />
            </Array>
          </mxGeometry>
        </mxCell>
        <mxCell id="17i3ZF8n9uIlwtxzLQqw-9" value="" style="endArrow=classic;html=1;rounded=0;" edge="1" parent="1">
          <mxGeometry width="50" height="50" relative="1" as="geometry">
            <mxPoint x="609.5" y="90" as="sourcePoint" />
            <mxPoint x="609.5" y="120" as="targetPoint" />
          </mxGeometry>
        </mxCell>
        <mxCell id="17i3ZF8n9uIlwtxzLQqw-10" value="Mencari buku" style="rounded=1;whiteSpace=wrap;html=1;" vertex="1" parent="1">
          <mxGeometry x="550" y="130" width="130" height="40" as="geometry" />
        </mxCell>
        <mxCell id="17i3ZF8n9uIlwtxzLQqw-12" value="" style="endArrow=classic;html=1;rounded=0;" edge="1" parent="1">
          <mxGeometry width="50" height="50" relative="1" as="geometry">
            <mxPoint x="540" y="149.5" as="sourcePoint" />
            <mxPoint x="510" y="149.5" as="targetPoint" />
          </mxGeometry>
        </mxCell>
        <mxCell id="17i3ZF8n9uIlwtxzLQqw-20" value="" style="edgeStyle=orthogonalEdgeStyle;rounded=0;orthogonalLoop=1;jettySize=auto;html=1;" edge="1" parent="1" source="17i3ZF8n9uIlwtxzLQqw-13" target="17i3ZF8n9uIlwtxzLQqw-17">
          <mxGeometry relative="1" as="geometry" />
        </mxCell>
        <mxCell id="17i3ZF8n9uIlwtxzLQqw-13" value="masukan nama buku atau pengarang buku" style="rounded=1;whiteSpace=wrap;html=1;" vertex="1" parent="1">
          <mxGeometry x="370" y="130" width="130" height="40" as="geometry" />
        </mxCell>
        <mxCell id="17i3ZF8n9uIlwtxzLQqw-22" value="" style="edgeStyle=orthogonalEdgeStyle;rounded=0;orthogonalLoop=1;jettySize=auto;html=1;" edge="1" parent="1" source="17i3ZF8n9uIlwtxzLQqw-17">
          <mxGeometry relative="1" as="geometry">
            <mxPoint x="160" y="150" as="targetPoint" />
          </mxGeometry>
        </mxCell>
        <mxCell id="17i3ZF8n9uIlwtxzLQqw-17" value="proses mencari" style="rounded=1;whiteSpace=wrap;html=1;" vertex="1" parent="1">
          <mxGeometry x="220" y="130" width="100" height="40" as="geometry" />
        </mxCell>
        <mxCell id="17i3ZF8n9uIlwtxzLQqw-23" value="pencarian muncul" style="rounded=1;whiteSpace=wrap;html=1;" vertex="1" parent="1">
          <mxGeometry x="60" y="130" width="100" height="40" as="geometry" />
        </mxCell>
        <mxCell id="17i3ZF8n9uIlwtxzLQqw-24" value="" style="endArrow=classic;startArrow=classic;html=1;rounded=0;entryX=0;entryY=0.75;entryDx=0;entryDy=0;" edge="1" parent="1" target="17i3ZF8n9uIlwtxzLQqw-23">
          <mxGeometry width="50" height="50" relative="1" as="geometry">
            <mxPoint x="80" y="210" as="sourcePoint" />
            <mxPoint x="460" y="170" as="targetPoint" />
            <Array as="points">
              <mxPoint x="40" y="180" />
            </Array>
          </mxGeometry>
        </mxCell>
        <mxCell id="17i3ZF8n9uIlwtxzLQqw-27" value="" style="edgeStyle=orthogonalEdgeStyle;rounded=0;orthogonalLoop=1;jettySize=auto;html=1;" edge="1" parent="1" source="17i3ZF8n9uIlwtxzLQqw-25">
          <mxGeometry relative="1" as="geometry">
            <mxPoint x="250" y="212" as="targetPoint" />
          </mxGeometry>
        </mxCell>
        <mxCell id="17i3ZF8n9uIlwtxzLQqw-25" value="pencarian muncul" style="rounded=1;whiteSpace=wrap;html=1;" vertex="1" parent="1">
          <mxGeometry x="82" y="192" width="100" height="40" as="geometry" />
        </mxCell>
        <mxCell id="17i3ZF8n9uIlwtxzLQqw-30" value="" style="edgeStyle=orthogonalEdgeStyle;rounded=0;orthogonalLoop=1;jettySize=auto;html=1;" edge="1" parent="1" source="17i3ZF8n9uIlwtxzLQqw-28">
          <mxGeometry relative="1" as="geometry">
            <mxPoint x="420" y="212" as="targetPoint" />
          </mxGeometry>
        </mxCell>
        <mxCell id="17i3ZF8n9uIlwtxzLQqw-28" value="rincian buku" style="rounded=1;whiteSpace=wrap;html=1;" vertex="1" parent="1">
          <mxGeometry x="251" y="192" width="100" height="40" as="geometry" />
        </mxCell>
        <mxCell id="17i3ZF8n9uIlwtxzLQqw-31" value="rincian buku" style="rounded=1;whiteSpace=wrap;html=1;" vertex="1" parent="1">
          <mxGeometry x="420" y="194" width="100" height="40" as="geometry" />
        </mxCell>
      </root>
    </mxGraphModel>
  </diagram>
</mxfile>
